<?xml version="1.0" encoding="utf-8"?>
<!-- Generator: Adobe Illustrator 16.0.0, SVG Export Plug-In . SVG Version: 6.00 Build 0)  -->
<!DOCTYPE svg PUBLIC "-//W3C//DTD SVG 1.1//EN" "http://www.w3.org/Graphics/SVG/1.1/DTD/svg11.dtd">
<svg version="1.1" id="Layer_1" xmlns="http://www.w3.org/2000/svg" xmlns:xlink="http://www.w3.org/1999/xlink" x="0px" y="0px"
	 width="512px" height="512px" viewBox="0 0 512 512" enable-background="new 0 0 512 512" xml:space="preserve">
<g id="fire_ball">
	<path fill="#FC6E51" d="M465.137,153.529c-30.234-30.218-70.405-46.858-113.14-46.858c-5.03,0-20.311,0-121.121,32.515
		c-49.155,15.859-95.256,31.921-95.717,32.077c-4.305,1.5-7.18,5.578-7.156,10.125c0.023,4.563,2.938,8.594,7.25,10.062
		l34.89,11.781L7.35,256.527c-4.367,1.438-7.328,5.5-7.344,10.094s2.906,8.694,7.266,10.163l167.668,56.437l-62.295,30.53
		c-4.102,2-6.469,6.406-5.891,10.938s3.977,8.187,8.445,9.093c21.476,4.406,210.535,42.875,236.798,42.875
		c42.734,0,82.905-16.625,113.14-46.843c30.218-30.219,46.857-70.405,46.857-113.146
		C511.994,223.935,495.354,183.748,465.137,153.529z"/>
	<path fill="#FC6E51" d="M224.001,85.343c0,5.891-4.773,10.672-10.664,10.672c-5.891,0-10.672-4.781-10.672-10.672
		c0-5.89,4.781-10.671,10.672-10.671C219.228,74.672,224.001,79.453,224.001,85.343z"/>
	<path fill="#AC92EB" d="M394.653,469.343c0,5.875-4.766,10.656-10.656,10.656s-10.656-4.781-10.656-10.656
		c0-5.906,4.766-10.688,10.656-10.688S394.653,463.437,394.653,469.343z"/>
	<path fill="#ED5564" d="M213.337,448v-10.656c0-5.906-4.781-10.688-10.672-10.688c-5.89,0-10.664,4.781-10.664,10.688V448
		c-5.891,0-10.664,4.781-10.664,10.655c0,5.906,4.773,10.688,10.664,10.688v10.656c0,5.906,4.773,10.656,10.664,10.656
		c5.891,0,10.672-4.75,10.672-10.656v-10.656c5.89,0,10.664-4.781,10.664-10.688C224.001,452.781,219.228,448,213.337,448z"/>
	<path fill="#48CFAD" d="M383.997,42.673V32.017c0-5.906-4.781-10.672-10.656-10.672c-5.906,0-10.688,4.766-10.688,10.672v10.656
		c-5.875,0-10.656,4.781-10.656,10.671s4.781,10.672,10.656,10.672v10.656c0,5.891,4.781,10.671,10.688,10.671
		c5.875,0,10.656-4.781,10.656-10.671V64.016c5.891,0,10.656-4.781,10.656-10.672S389.888,42.673,383.997,42.673z"/>
	<path fill="#F6BB42" d="M447.996,266.668c0,53.021-42.983,95.989-95.999,95.989c-53.014,0-95.997-42.968-95.997-95.989
		c0-53.015,42.983-95.999,95.997-95.999C405.013,170.669,447.996,213.653,447.996,266.668z"/>
	<path fill="#FFCE54" d="M458.652,266.668c0-52.249-37.749-95.842-87.437-104.92c-0.031-0.016-0.094-0.016-0.141-0.031
		c-6.188-1.125-12.562-1.703-19.078-1.703c-35.936,0-67.779,17.859-87.114,45.171c-0.164,0.203-0.328,0.406-0.484,0.625
		c-0.188,0.266-0.359,0.547-0.523,0.828c-11.695,17.109-18.539,37.78-18.539,60.03c0,4.641,0.297,9.21,0.875,13.679
		c0.008,0.062,0.016,0.125,0.023,0.156c6.805,52.312,51.639,92.842,105.762,92.842c26.906,0,51.531-10.031,70.312-26.53
		c0.531-0.406,1.047-0.844,1.516-1.344C445.215,325.939,458.652,297.847,458.652,266.668z M437.34,266.668
		c0,9.772-1.672,19.179-4.719,27.929c-2.453-24.382-14.983-43.491-36.624-55.601c-12.594-7.031-20.375-15.905-23.141-26.358
		c-2.844-10.75-0.047-21.39,2.547-28.03C411.106,194.794,437.34,227.731,437.34,266.668z M367.419,283.409
		c-6.703,2.188-13.875,0.75-21.952-4.406c-37.046-23.632-63.015-22.913-78.623-17.788c0.797-12.484,4.281-24.25,9.89-34.718
		c15.734,8.015,32.938,10.468,48.109,10.468c13.921,0,26.123-2.062,33.889-3.781c5.922,9.562,14.891,17.75,26.859,24.437
		c1.594,0.891,3.125,1.844,4.578,2.828C385.653,268.777,377.591,280.097,367.419,283.409z M351.997,181.341
		c0.641,0,1.281,0.016,1.938,0.016c-2.719,8.391-4.812,19.578-2.812,31.593c-13.937,2.734-39.967,5.672-61.842-4.078
		C304.89,191.951,327.218,181.341,351.997,181.341z M268.359,283.597c7.874-4.281,28.608-10.219,65.639,13.406
		c7.703,4.905,14.844,7.343,21.171,8.249c0.078,4.375-0.766,10.188-4.452,15.688c-6.688,9.938-21.218,16.5-42.171,19.125
		C288.155,327.971,273.219,307.596,268.359,283.597z M345.764,351.782c9.968-4.874,17.624-11.312,22.905-19.343
		c7-10.625,8.141-21.656,7.703-29.594c13.25-5.187,22.844-16.562,28.938-26.124c4.219,7.531,6.375,16.406,6.438,26.562
		c0.078,12.781-3.219,24-4.781,28.594c-14.875,12.562-34.047,20.124-54.969,20.124C349.904,352.001,347.811,351.907,345.764,351.782
		z"/>
	<g>
		<path fill="#FC6E51" d="M96.004,170.669c-5.891,0-10.664,4.781-10.664,10.672s4.773,10.672,10.664,10.672
			s10.664-4.781,10.664-10.672S101.895,170.669,96.004,170.669z"/>
		<path fill="#FC6E51" d="M32.005,320.002c0,5.906,4.773,10.656,10.665,10.656c5.89,0,10.671-4.75,10.671-10.656
			c0-5.875-4.781-10.656-10.671-10.656C36.778,309.346,32.005,314.127,32.005,320.002z"/>
		<path fill="#FC6E51" d="M10.669,192.013h42.671c5.891,0,10.664-4.781,10.664-10.672s-4.773-10.672-10.664-10.672H10.669
			c-5.89,0-10.664,4.781-10.664,10.672S4.779,192.013,10.669,192.013z"/>
		<path fill="#FC6E51" d="M85.34,362.657h-74.67c-5.89,0-10.664,4.781-10.664,10.688C0.006,379.22,4.779,384,10.669,384h74.67
			c5.891,0,10.664-4.78,10.664-10.655C96.004,367.438,91.23,362.657,85.34,362.657z"/>
	</g>
</g>
</svg>
